<?xml version="1.0" encoding="utf-8"?>
<!-- Generator: Adobe Illustrator 22.0.1, SVG Export Plug-In . SVG Version: 6.00 Build 0)  -->
<svg version="1.1" id="Layer_1" xmlns="http://www.w3.org/2000/svg" xmlns:xlink="http://www.w3.org/1999/xlink" x="0px" y="0px"
	 viewBox="0 0 48 48" style="enable-background:new 0 0 48 48;" xml:space="preserve">
<style type="text/css">
	.st0{clip-path:url(#SVGID_2_);enable-background:new    ;}
	.st1{clip-path:url(#SVGID_4_);}
	.st2{clip-path:url(#SVGID_6_);fill:none;stroke:#BFBEBE;stroke-miterlimit:10;}
	.st3{fill:#939595;}
	.st4{clip-path:url(#SVGID_8_);fill:#1A365D;}
	.st5{clip-path:url(#SVGID_10_);fill:#009CA5;}
	.st6{clip-path:url(#SVGID_12_);fill:#2B5898;}
	.st7{clip-path:url(#SVGID_14_);fill:#0D1622;}
	.st8{clip-path:url(#SVGID_16_);fill:#59C7DC;}
	.st9{clip-path:url(#SVGID_18_);fill:#00545A;}
	.st10{clip-path:url(#SVGID_20_);fill:#73AA4E;}
	.st11{clip-path:url(#SVGID_22_);fill:#9CC480;}
	.st12{clip-path:url(#SVGID_24_);fill:#507636;}
	.st13{clip-path:url(#SVGID_26_);fill:#7574B6;}
	.st14{clip-path:url(#SVGID_28_);fill:#A7A6CF;}
	.st15{clip-path:url(#SVGID_30_);fill:#4C4C92;}
	.st16{clip-path:url(#SVGID_32_);fill:#808182;}
	.st17{clip-path:url(#SVGID_34_);fill:#A5ADB1;}
	.st18{clip-path:url(#SVGID_36_);fill:#586066;}
	.st19{fill:none;stroke:#009CA5;stroke-width:2;stroke-linejoin:round;stroke-miterlimit:10;}
	.st20{fill:none;stroke:#009CA5;stroke-width:2;stroke-linecap:round;stroke-linejoin:round;stroke-miterlimit:10;}
	.st21{fill:none;stroke:#009CA5;stroke-width:2;stroke-miterlimit:10;}
	.st22{fill:none;stroke:#009CA5;stroke-width:2.3034;stroke-linecap:round;stroke-linejoin:round;stroke-miterlimit:10;}
	.st23{fill:none;stroke:#009CA5;stroke-width:2.0061;stroke-linecap:round;stroke-linejoin:round;stroke-miterlimit:10;}
	.st24{fill:none;stroke:#E04844;stroke-width:2;stroke-linecap:round;stroke-linejoin:round;stroke-miterlimit:10;}
	.st25{fill:#FFFFFF;}
	.st26{fill:#009CA5;}
	.st27{fill:none;stroke:#FFFFFF;stroke-width:2;stroke-linecap:round;stroke-linejoin:round;stroke-miterlimit:10;}
	.st28{fill:none;stroke:#FFFFFF;stroke-width:2;stroke-miterlimit:10;}
	.st29{fill:none;stroke:#009CA4;stroke-width:2;stroke-linecap:round;stroke-linejoin:round;stroke-miterlimit:10;}
	.st30{fill:none;}
	.st31{fill:#009CA5;stroke:#009CA5;stroke-width:2;stroke-linecap:round;stroke-linejoin:round;stroke-miterlimit:10;}
</style>
<path class="st20" d="M23.8,46h-3.6C13.5,46,8,40.5,8,33.8V16h28v17.8C36,40.5,30.5,46,23.8,46z"/>
<g>
	<g>
		<g>
			<path class="st20" d="M21,12c0-1.7,2-1.7,2-3.3C23,7,21,7,21,5.3s2-1.7,2-3.3"/>
		</g>
		<g>
			<path class="st20" d="M28,12c0-1.3,2-1.3,2-2.7C30,8,28,8,28,6.7s2-1.3,2-2.7"/>
		</g>
		<g>
			<path class="st20" d="M28,12c0-1.3,2-1.3,2-2.7C30,8,28,8,28,6.7s2-1.3,2-2.7"/>
		</g>
		<g>
			<path class="st20" d="M14,12c0-1.3,2-1.3,2-2.7C16,8,14,8,14,6.7s2-1.3,2-2.7"/>
		</g>
	</g>
</g>
<g>
	<path class="st30" d="M35.8,36H40V26h-4v7.8C36,34.6,35.9,35.3,35.8,36z"/>
	<path class="st20" d="M42.6,22H36v4h4v10h-4.2c-0.3,1.4-0.8,2.8-1.5,4h8.3c0.8,0,1.4-0.6,1.4-1.4V23.4C44,22.6,43.4,22,42.6,22z"/>
</g>
</svg>
