<?xml version="1.0" encoding="utf-8"?>
<!-- Generator: Adobe Illustrator 22.0.1, SVG Export Plug-In . SVG Version: 6.00 Build 0)  -->
<svg version="1.1" id="Layer_1" xmlns="http://www.w3.org/2000/svg" xmlns:xlink="http://www.w3.org/1999/xlink" x="0px" y="0px"
	 viewBox="0 0 48 48" style="enable-background:new 0 0 48 48;" xml:space="preserve">
<style type="text/css">
	.st0{fill:#F2F2F2;}
	.st1{clip-path:url(#SVGID_2_);enable-background:new    ;}
	.st2{clip-path:url(#SVGID_4_);}
	.st3{clip-path:url(#SVGID_6_);fill:none;stroke:#BFBEBE;stroke-miterlimit:10;}
	.st4{fill:#939595;}
	.st5{clip-path:url(#SVGID_8_);fill:#1A365D;}
	.st6{clip-path:url(#SVGID_10_);fill:#009CA5;}
	.st7{clip-path:url(#SVGID_12_);fill:#2B5898;}
	.st8{clip-path:url(#SVGID_14_);fill:#0D1622;}
	.st9{clip-path:url(#SVGID_16_);fill:#59C7DC;}
	.st10{clip-path:url(#SVGID_18_);fill:#00545A;}
	.st11{clip-path:url(#SVGID_20_);fill:#73AA4E;}
	.st12{clip-path:url(#SVGID_22_);fill:#9CC480;}
	.st13{clip-path:url(#SVGID_24_);fill:#507636;}
	.st14{clip-path:url(#SVGID_26_);fill:#7574B6;}
	.st15{clip-path:url(#SVGID_28_);fill:#A7A6CF;}
	.st16{clip-path:url(#SVGID_30_);fill:#4C4C92;}
	.st17{clip-path:url(#SVGID_32_);fill:#808182;}
	.st18{clip-path:url(#SVGID_34_);fill:#A5ADB1;}
	.st19{clip-path:url(#SVGID_36_);fill:#586066;}
	.st20{fill:none;stroke:#009CA5;stroke-width:2;stroke-linejoin:round;stroke-miterlimit:10;}
	.st21{fill:none;stroke:#009CA5;stroke-width:2;stroke-linecap:round;stroke-linejoin:round;stroke-miterlimit:10;}
	.st22{fill:none;stroke:#009CA5;stroke-width:2;stroke-miterlimit:10;}
	.st23{fill:none;stroke:#009CA5;stroke-width:2.0357;stroke-linecap:round;stroke-linejoin:round;stroke-miterlimit:10;}
	.st24{fill:none;stroke:#009CA5;stroke-width:2.3034;stroke-linecap:round;stroke-linejoin:round;stroke-miterlimit:10;}
	.st25{fill:none;stroke:#009CA5;stroke-width:2.0061;stroke-linecap:round;stroke-linejoin:round;stroke-miterlimit:10;}
	.st26{fill:none;stroke:#009CA5;stroke-width:1.8656;stroke-linecap:round;stroke-linejoin:round;stroke-miterlimit:10;}
	.st27{fill:none;stroke:#009CA5;stroke-width:1.7589;stroke-linecap:round;stroke-linejoin:round;stroke-miterlimit:10;}
</style>
<polyline class="st20" points="26,46 7,46 5,2 31,2 30.2,19.5 "/>
<path class="st20" d="M5.3,11.6c10.1,1.7,10.3-0.7,16.7-1.4c6.2-0.7,8.4,1.2,8.4,1.2"/>
<g>
	<path class="st21" d="M36.4,23.5c-3.3,0-4.5,0.8-6,1.6c-1.5-0.7-2.7-1.6-6-1.6c-3.8,0-7.3,5-6,11c1.3,6,4.4,11.5,7.2,11.5
		c2,0,2.9-0.8,4.8-0.9c1.9,0,2.7,0.9,4.8,0.9c2.8,0,5.9-5.5,7.2-11.5C43.8,28.5,40.2,23.5,36.4,23.5z"/>
	<path class="st21" d="M30.6,19.7c-1.1-2.2-3.4-3.4-3.9-3.2c-0.6,0.3-1.3,2.7-0.3,5l0,0c0,0,0,0,0,0c1.1,2.2,3.4,3.4,3.9,3.2
		C30.8,24.5,31.6,22,30.6,19.7L30.6,19.7z"/>
	<path class="st21" d="M30.8,23.8c0.3,0.3,2.6,0.1,4.2-1.4l0,0c1.5-1.6,1.6-3.9,1.3-4.2c-0.4-0.4-2.6-0.1-4.2,1.4l0,0c0,0,0,0,0,0
		c-0.4,0.4-0.7,0.8-0.9,1.3"/>
</g>
</svg>
