<?xml version="1.0" encoding="utf-8"?>
<!-- Generator: Adobe Illustrator 22.0.1, SVG Export Plug-In . SVG Version: 6.00 Build 0)  -->
<svg version="1.1" id="Layer_1" xmlns="http://www.w3.org/2000/svg" xmlns:xlink="http://www.w3.org/1999/xlink" x="0px" y="0px"
	 viewBox="0 0 48 48" style="enable-background:new 0 0 48 48;" xml:space="preserve">
<style type="text/css">
	.st0{clip-path:url(#SVGID_2_);enable-background:new    ;}
	.st1{clip-path:url(#SVGID_4_);}
	.st2{clip-path:url(#SVGID_6_);fill:none;stroke:#BFBEBE;stroke-miterlimit:10;}
	.st3{fill:#939595;}
	.st4{clip-path:url(#SVGID_8_);fill:#1A365D;}
	.st5{clip-path:url(#SVGID_10_);fill:#009CA5;}
	.st6{clip-path:url(#SVGID_12_);fill:#2B5898;}
	.st7{clip-path:url(#SVGID_14_);fill:#0D1622;}
	.st8{clip-path:url(#SVGID_16_);fill:#59C7DC;}
	.st9{clip-path:url(#SVGID_18_);fill:#00545A;}
	.st10{clip-path:url(#SVGID_20_);fill:#73AA4E;}
	.st11{clip-path:url(#SVGID_22_);fill:#9CC480;}
	.st12{clip-path:url(#SVGID_24_);fill:#507636;}
	.st13{clip-path:url(#SVGID_26_);fill:#7574B6;}
	.st14{clip-path:url(#SVGID_28_);fill:#A7A6CF;}
	.st15{clip-path:url(#SVGID_30_);fill:#4C4C92;}
	.st16{clip-path:url(#SVGID_32_);fill:#808182;}
	.st17{clip-path:url(#SVGID_34_);fill:#A5ADB1;}
	.st18{clip-path:url(#SVGID_36_);fill:#586066;}
	.st19{fill:none;stroke:#009CA5;stroke-width:2;stroke-linejoin:round;stroke-miterlimit:10;}
	.st20{fill:none;stroke:#009CA5;stroke-width:2;stroke-linecap:round;stroke-linejoin:round;stroke-miterlimit:10;}
	.st21{fill:none;stroke:#009CA5;stroke-width:2;stroke-miterlimit:10;}
	.st22{fill:none;stroke:#009CA5;stroke-width:2.3034;stroke-linecap:round;stroke-linejoin:round;stroke-miterlimit:10;}
	.st23{fill:none;stroke:#009CA5;stroke-width:2.0061;stroke-linecap:round;stroke-linejoin:round;stroke-miterlimit:10;}
	.st24{fill:none;stroke:#E04844;stroke-width:2;stroke-linecap:round;stroke-linejoin:round;stroke-miterlimit:10;}
	.st25{fill:#FFFFFF;}
	.st26{fill:#009CA5;}
	.st27{fill:none;stroke:#FFFFFF;stroke-width:2;stroke-linecap:round;stroke-linejoin:round;stroke-miterlimit:10;}
	.st28{fill:none;stroke:#FFFFFF;stroke-width:2;stroke-miterlimit:10;}
	.st29{fill:none;stroke:#009CA4;stroke-width:2;stroke-linecap:round;stroke-linejoin:round;stroke-miterlimit:10;}
	.st30{fill:none;}
	.st31{fill:#009CA5;stroke:#009CA5;stroke-width:2;stroke-linecap:round;stroke-linejoin:round;stroke-miterlimit:10;}
</style>
<g>
	<rect x="2" y="36.5" class="st20" width="44.5" height="4.5"/>
	<path class="st20" d="M24,25.1c-3.1,4.2-1,10.6,5.3,11.1s9.2-1.9,11.6-8.7c1.5-4.2,1.7-8.7,1.7-8.7l-2.5-2
		C40,16.8,29.4,17.8,24,25.1z"/>
	<g>
		<path class="st20" d="M29.3,36.2c-6.2-0.5-8.4-6.9-5.3-11.1c2.5-3.3,6-5.4,9.1-6.6c-4.3-3.5-10.2-5.3-15.4-5.3
			c-8.1,0-13.1,4.2-15.2,10.8c-1.7,5.3,0,10.6,4.5,12.4h29.5c0,0,1.3-1.5,2-4C36.4,35.5,33.6,36.6,29.3,36.2z"/>
	</g>
	<g>
		<path class="st20" d="M46.3,13.8c-0.4-0.4-1-0.5-1.5-0.4c0-0.5-0.3-1-0.7-1.4c-0.8-0.7-2-0.5-2.7,0.3c-0.7,0.8-0.5,2,0.3,2.7
			l-1.6,1.9l2.2,1.8l1.6-1.9c0.8,0.7,2,0.5,2.7-0.3C47.2,15.6,47.1,14.4,46.3,13.8z"/>
	</g>
</g>
</svg>
