<?xml version="1.0" encoding="utf-8"?>
<!-- Generator: Adobe Illustrator 22.0.1, SVG Export Plug-In . SVG Version: 6.00 Build 0)  -->
<svg version="1.1" id="Layer_1" xmlns="http://www.w3.org/2000/svg" xmlns:xlink="http://www.w3.org/1999/xlink" x="0px" y="0px"
	 viewBox="0 0 48 48" style="enable-background:new 0 0 48 48;" xml:space="preserve">
<style type="text/css">
	.st0{fill:#F2F2F2;}
	.st1{clip-path:url(#SVGID_2_);enable-background:new    ;}
	.st2{clip-path:url(#SVGID_4_);}
	.st3{clip-path:url(#SVGID_6_);fill:none;stroke:#BFBEBE;stroke-miterlimit:10;}
	.st4{fill:#939595;}
	.st5{clip-path:url(#SVGID_8_);fill:#1A365D;}
	.st6{clip-path:url(#SVGID_10_);fill:#009CA5;}
	.st7{clip-path:url(#SVGID_12_);fill:#2B5898;}
	.st8{clip-path:url(#SVGID_14_);fill:#0D1622;}
	.st9{clip-path:url(#SVGID_16_);fill:#59C7DC;}
	.st10{clip-path:url(#SVGID_18_);fill:#00545A;}
	.st11{clip-path:url(#SVGID_20_);fill:#73AA4E;}
	.st12{clip-path:url(#SVGID_22_);fill:#9CC480;}
	.st13{clip-path:url(#SVGID_24_);fill:#507636;}
	.st14{clip-path:url(#SVGID_26_);fill:#7574B6;}
	.st15{clip-path:url(#SVGID_28_);fill:#A7A6CF;}
	.st16{clip-path:url(#SVGID_30_);fill:#4C4C92;}
	.st17{clip-path:url(#SVGID_32_);fill:#808182;}
	.st18{clip-path:url(#SVGID_34_);fill:#A5ADB1;}
	.st19{clip-path:url(#SVGID_36_);fill:#586066;}
	.st20{fill:none;stroke:#009CA5;stroke-width:2;stroke-linejoin:round;stroke-miterlimit:10;}
	.st21{fill:none;stroke:#009CA5;stroke-width:2;stroke-linecap:round;stroke-linejoin:round;stroke-miterlimit:10;}
	.st22{fill:none;stroke:#009CA5;stroke-width:2;stroke-miterlimit:10;}
	.st23{fill:none;stroke:#009CA5;stroke-width:2.0357;stroke-linecap:round;stroke-linejoin:round;stroke-miterlimit:10;}
	.st24{fill:none;stroke:#009CA5;stroke-width:2.3034;stroke-linecap:round;stroke-linejoin:round;stroke-miterlimit:10;}
	.st25{fill:none;stroke:#009CA5;stroke-width:2.0061;stroke-linecap:round;stroke-linejoin:round;stroke-miterlimit:10;}
	.st26{fill:none;stroke:#009CA5;stroke-width:1.8656;stroke-linecap:round;stroke-linejoin:round;stroke-miterlimit:10;}
	.st27{fill:none;stroke:#009CA5;stroke-width:1.7589;stroke-linecap:round;stroke-linejoin:round;stroke-miterlimit:10;}
</style>
<path class="st21" d="M38,27h7v9c0,3.9-3.1,7-7,7H10c-3.9,0-7-3.1-7-7v-9h25"/>
<line class="st21" x1="10" y1="43" x2="10" y2="46"/>
<line class="st21" x1="38" y1="43" x2="38" y2="46"/>
<path class="st21" d="M5,27V7.1C5,4.3,7.3,2,10.1,2h0c2.8,0,5.1,2.3,5.1,5.1"/>
<path class="st21" d="M19,11h-8v0c0-2.2,1.8-4,4-4h0C17.2,7,19,8.8,19,11L19,11z"/>
<line class="st21" x1="12" y1="14" x2="12" y2="15"/>
<line class="st21" x1="15" y1="14" x2="15" y2="15"/>
<line class="st21" x1="18" y1="14" x2="18" y2="15"/>
<line class="st21" x1="12" y1="18" x2="12" y2="19"/>
<line class="st21" x1="15" y1="18" x2="15" y2="19"/>
<line class="st21" x1="18" y1="18" x2="18" y2="19"/>
<line class="st21" x1="12" y1="22" x2="12" y2="23"/>
<line class="st21" x1="15" y1="22" x2="15" y2="23"/>
<line class="st21" x1="18" y1="22" x2="18" y2="23"/>
<rect x="28" y="25" class="st21" width="10" height="12"/>
<line class="st21" x1="38" y1="33" x2="28" y2="33"/>
</svg>
