<?xml version="1.0" encoding="utf-8"?>
<!-- Generator: Adobe Illustrator 22.0.1, SVG Export Plug-In . SVG Version: 6.00 Build 0)  -->
<svg version="1.1" id="Layer_1" xmlns="http://www.w3.org/2000/svg" xmlns:xlink="http://www.w3.org/1999/xlink" x="0px" y="0px"
	 viewBox="0 0 48 48" style="enable-background:new 0 0 48 48;" xml:space="preserve">
<style type="text/css">
	.st0{fill:#F2F2F2;}
	.st1{clip-path:url(#SVGID_2_);enable-background:new    ;}
	.st2{clip-path:url(#SVGID_4_);}
	.st3{clip-path:url(#SVGID_6_);}
	.st4{fill:#808182;}
	.st5{clip-path:url(#SVGID_6_);fill:none;stroke:#BFBEBE;stroke-miterlimit:10;}
	.st6{fill:#939595;}
	.st7{clip-path:url(#SVGID_8_);fill:#1A365D;}
	.st8{clip-path:url(#SVGID_10_);fill:#009CA5;}
	.st9{clip-path:url(#SVGID_12_);fill:#2B5898;}
	.st10{clip-path:url(#SVGID_14_);fill:#0D1622;}
	.st11{clip-path:url(#SVGID_16_);fill:#59C7DC;}
	.st12{clip-path:url(#SVGID_18_);fill:#00545A;}
	.st13{clip-path:url(#SVGID_20_);fill:#73AA4E;}
	.st14{clip-path:url(#SVGID_22_);fill:#9CC480;}
	.st15{clip-path:url(#SVGID_24_);fill:#507636;}
	.st16{clip-path:url(#SVGID_26_);fill:#7574B6;}
	.st17{clip-path:url(#SVGID_28_);fill:#A7A6CF;}
	.st18{clip-path:url(#SVGID_30_);fill:#4C4C92;}
	.st19{clip-path:url(#SVGID_32_);fill:#808182;}
	.st20{clip-path:url(#SVGID_34_);fill:#A5ADB1;}
	.st21{clip-path:url(#SVGID_36_);fill:#586066;}
	.st22{fill:none;stroke:#009CA5;stroke-width:2;stroke-linejoin:round;stroke-miterlimit:10;}
	.st23{fill:none;stroke:#009CA5;stroke-width:2;stroke-linecap:round;stroke-linejoin:round;stroke-miterlimit:10;}
	.st24{fill:none;stroke:#009CA5;stroke-width:2;stroke-miterlimit:10;}
	.st25{fill:none;stroke:#009CA5;stroke-width:2.0357;stroke-linecap:round;stroke-linejoin:round;stroke-miterlimit:10;}
	.st26{fill:none;stroke:#009CA5;stroke-width:2.3034;stroke-linecap:round;stroke-linejoin:round;stroke-miterlimit:10;}
	.st27{fill:none;stroke:#009CA5;stroke-width:2.0061;stroke-linecap:round;stroke-linejoin:round;stroke-miterlimit:10;}
	.st28{fill:none;stroke:#009CA5;stroke-width:1.8656;stroke-linecap:round;stroke-linejoin:round;stroke-miterlimit:10;}
	.st29{fill:none;stroke:#009CA5;stroke-width:1.7589;stroke-linecap:round;stroke-linejoin:round;stroke-miterlimit:10;}
</style>
<path class="st23" d="M42,18v26c0,1.1-0.9,2-2,2H8c-1.1,0-2-0.9-2-2V18"/>
<polyline class="st23" points="42,18 42,18 26.7,31.7 "/>
<line class="st23" x1="21.1" y1="31.6" x2="6" y2="18"/>
<line class="st23" x1="37.2" y1="13.7" x2="42" y2="18"/>
<path class="st22" d="M19.6,5.9l3.1-2.8c0.8-0.7,1.9-0.7,2.7,0l3,2.7"/>
<line class="st23" x1="6" y1="18" x2="10.5" y2="14"/>
<path class="st23" d="M6.9,45.2l15.9-14.1c0.8-0.7,1.9-0.7,2.7,0l15.6,14"/>
<polyline class="st23" points="11,22 11,6 24,6 "/>
<polyline class="st23" points="37,22 37,6 24,6 "/>
</svg>
