<?xml version="1.0" encoding="utf-8"?>
<!-- Generator: Adobe Illustrator 22.0.1, SVG Export Plug-In . SVG Version: 6.00 Build 0)  -->
<svg version="1.1" id="Layer_1" xmlns="http://www.w3.org/2000/svg" xmlns:xlink="http://www.w3.org/1999/xlink" x="0px" y="0px"
	 viewBox="0 0 24 24" style="enable-background:new 0 0 24 24;" xml:space="preserve">
<style type="text/css">
	.st0{fill:none;}
	.st1{fill:#F2F2F2;}
	.st2{font-family:'MyriadPro-Bold';}
	.st3{font-size:16px;}
	.st4{font-family:'MyriadPro-Regular';}
	.st5{font-size:12px;}
	.st6{clip-path:url(#SVGID_2_);enable-background:new    ;}
	.st7{clip-path:url(#SVGID_4_);}
	.st8{clip-path:url(#SVGID_6_);fill:none;stroke:#BFBEBE;stroke-miterlimit:10;}
	.st9{fill:#939595;}
	.st10{clip-path:url(#SVGID_8_);fill:#1A365D;}
	.st11{clip-path:url(#SVGID_10_);fill:#009CA5;}
	.st12{clip-path:url(#SVGID_12_);fill:#2B5898;}
	.st13{clip-path:url(#SVGID_14_);fill:#0D1622;}
	.st14{clip-path:url(#SVGID_16_);fill:#59C7DC;}
	.st15{clip-path:url(#SVGID_18_);fill:#00545A;}
	.st16{clip-path:url(#SVGID_20_);fill:#73AA4E;}
	.st17{clip-path:url(#SVGID_22_);fill:#9CC480;}
	.st18{clip-path:url(#SVGID_24_);fill:#507636;}
	.st19{clip-path:url(#SVGID_26_);fill:#7574B6;}
	.st20{clip-path:url(#SVGID_28_);fill:#A7A6CF;}
	.st21{clip-path:url(#SVGID_30_);fill:#4C4C92;}
	.st22{clip-path:url(#SVGID_32_);fill:#808182;}
	.st23{clip-path:url(#SVGID_34_);fill:#A5ADB1;}
	.st24{clip-path:url(#SVGID_36_);fill:#586066;}
	.st25{fill:none;stroke:#009CA5;stroke-width:2;stroke-linejoin:round;stroke-miterlimit:10;}
	.st26{fill:none;stroke:#009CA5;stroke-width:2;stroke-linecap:round;stroke-linejoin:round;stroke-miterlimit:10;}
	.st27{fill:none;stroke:#009CA5;stroke-width:2;stroke-miterlimit:10;}
	.st28{fill:none;stroke:#009CA5;stroke-width:2.3034;stroke-linecap:round;stroke-linejoin:round;stroke-miterlimit:10;}
	.st29{fill:none;stroke:#009CA5;stroke-width:2.0061;stroke-linecap:round;stroke-linejoin:round;stroke-miterlimit:10;}
	.st30{fill:#FFFFFF;}
	.st31{fill:#009CA5;}
	.st32{fill:none;stroke:#FFFFFF;stroke-width:2;stroke-linecap:round;stroke-linejoin:round;stroke-miterlimit:10;}
	.st33{fill:none;stroke:#FFFFFF;stroke-miterlimit:10;}
	.st34{fill:none;stroke:#009CA4;stroke-width:2;stroke-linecap:round;stroke-linejoin:round;stroke-miterlimit:10;}
</style>
<rect x="-10.4" y="-253.5" class="st0" width="171.1" height="299.2"/>
<text transform="matrix(1 0 0 1 -10.415 -242.1601)"><tspan x="0" y="0" class="st1 st2 st3">Icons Needed</tspan><tspan x="0" y="14.4" class="st1 st4 st5">Food and water</tspan><tspan x="0" y="28.8" class="st1 st4 st5">Medication</tspan><tspan x="0" y="43.2" class="st1 st4 st5">Incidents and Injuries</tspan><tspan x="0" y="57.6" class="st1 st4 st5">Personal Hygiene</tspan><tspan x="0" y="72" class="st1 st4 st5">Messaging</tspan><tspan x="0" y="86.4" class="st1 st4 st5">Contacts</tspan><tspan x="0" y="100.8" class="st1 st4 st5">Sleep</tspan><tspan x="0" y="115.2" class="st1 st4 st5">Client Records</tspan><tspan x="0" y="129.6" class="st1 st4 st5">Camera</tspan><tspan x="0" y="144" class="st1 st4 st5">Food</tspan><tspan x="0" y="158.4" class="st1 st4 st5">Drink</tspan><tspan x="0" y="172.8" class="st1 st4 st5">Food Menu</tspan></text>
<path class="st33" d="M19.2,6.7h-2.7L16,5.5c-0.1-0.3-0.4-0.4-0.7-0.4H8.6C8.3,5.1,8.1,5.3,8,5.5L7.4,6.7H6.8V6.5
	c0-0.4-0.3-0.7-0.7-0.7H5.7C5.3,5.8,5,6.1,5,6.5v0.2H4.8C4.3,6.7,4,7.1,4,7.5v10.7c0,0.4,0.3,0.8,0.8,0.8h14.5
	c0.4,0,0.8-0.3,0.8-0.8V7.5C20,7.1,19.7,6.7,19.2,6.7z M12,16.4c-2,0-3.6-1.6-3.6-3.6c0-2,1.6-3.6,3.6-3.6c2,0,3.6,1.6,3.6,3.6
	C15.6,14.8,14,16.4,12,16.4z"/>
</svg>
