<?xml version="1.0" encoding="utf-8"?>
<!-- Generator: Adobe Illustrator 22.0.1, SVG Export Plug-In . SVG Version: 6.00 Build 0)  -->
<svg version="1.1" id="Layer_1" xmlns="http://www.w3.org/2000/svg" xmlns:xlink="http://www.w3.org/1999/xlink" x="0px" y="0px"
	 viewBox="0 0 48 48" style="enable-background:new 0 0 48 48;" xml:space="preserve">
<style type="text/css">
	.st0{fill:#F2F2F2;}
	.st1{clip-path:url(#SVGID_2_);enable-background:new    ;}
	.st2{clip-path:url(#SVGID_4_);}
	.st3{clip-path:url(#SVGID_6_);fill:none;stroke:#BFBEBE;stroke-miterlimit:10;}
	.st4{fill:#939595;}
	.st5{clip-path:url(#SVGID_8_);fill:#1A365D;}
	.st6{clip-path:url(#SVGID_10_);fill:#009CA5;}
	.st7{clip-path:url(#SVGID_12_);fill:#2B5898;}
	.st8{clip-path:url(#SVGID_14_);fill:#0D1622;}
	.st9{clip-path:url(#SVGID_16_);fill:#59C7DC;}
	.st10{clip-path:url(#SVGID_18_);fill:#00545A;}
	.st11{clip-path:url(#SVGID_20_);fill:#73AA4E;}
	.st12{clip-path:url(#SVGID_22_);fill:#9CC480;}
	.st13{clip-path:url(#SVGID_24_);fill:#507636;}
	.st14{clip-path:url(#SVGID_26_);fill:#7574B6;}
	.st15{clip-path:url(#SVGID_28_);fill:#A7A6CF;}
	.st16{clip-path:url(#SVGID_30_);fill:#4C4C92;}
	.st17{clip-path:url(#SVGID_32_);fill:#808182;}
	.st18{clip-path:url(#SVGID_34_);fill:#A5ADB1;}
	.st19{clip-path:url(#SVGID_36_);fill:#586066;}
	.st20{fill:none;stroke:#009CA5;stroke-width:2;stroke-linejoin:round;stroke-miterlimit:10;}
	.st21{fill:none;stroke:#009CA5;stroke-width:2;stroke-linecap:round;stroke-linejoin:round;stroke-miterlimit:10;}
	.st22{fill:none;stroke:#009CA5;stroke-width:2;stroke-miterlimit:10;}
	.st23{fill:none;stroke:#009CA5;stroke-width:2.0357;stroke-linecap:round;stroke-linejoin:round;stroke-miterlimit:10;}
	.st24{fill:none;stroke:#009CA5;stroke-width:2.3034;stroke-linecap:round;stroke-linejoin:round;stroke-miterlimit:10;}
	.st25{fill:none;stroke:#009CA5;stroke-width:2.0061;stroke-linecap:round;stroke-linejoin:round;stroke-miterlimit:10;}
	.st26{fill:none;stroke:#009CA5;stroke-width:1.8656;stroke-linecap:round;stroke-linejoin:round;stroke-miterlimit:10;}
	.st27{fill:none;stroke:#009CA5;stroke-width:1.7589;stroke-linecap:round;stroke-linejoin:round;stroke-miterlimit:10;}
</style>
<g>
	<path class="st20" d="M17.3,23.9c0-9.7,7.2-18,15.8-21.1c-2.4-0.9-5-1.3-7.6-1.3C13,1.5,3,11.5,3,23.9c0,12.4,10,22.4,22.4,22.4
		c2.7,0,5.3-0.5,7.6-1.3C24.4,41.9,17.3,33.6,17.3,23.9z"/>
	<polygon class="st20" points="31.3,12.4 32.7,15.2 35.7,15.6 33.5,17.8 34,20.8 31.3,19.4 28.6,20.8 29.1,17.8 26.9,15.6 
		29.9,15.2 	"/>
	<polygon class="st20" points="38.9,25.9 40.3,28.7 43.3,29.1 41.1,31.3 41.6,34.3 38.9,32.9 36.2,34.3 36.7,31.3 34.5,29.1 
		37.5,28.7 	"/>
</g>
</svg>
