<?xml version="1.0" encoding="utf-8"?>
<!-- Generator: Adobe Illustrator 22.0.1, SVG Export Plug-In . SVG Version: 6.00 Build 0)  -->
<svg version="1.1" id="Layer_1" xmlns="http://www.w3.org/2000/svg" xmlns:xlink="http://www.w3.org/1999/xlink" x="0px" y="0px"
	 viewBox="0 0 24 24" style="enable-background:new 0 0 24 24;" xml:space="preserve">
<style type="text/css">
	.st0{fill:#F2F2F2;}
	.st1{clip-path:url(#SVGID_2_);enable-background:new    ;}
	.st2{clip-path:url(#SVGID_4_);}
	.st3{clip-path:url(#SVGID_6_);fill:none;stroke:#BFBEBE;stroke-miterlimit:10;}
	.st4{fill:#939595;}
	.st5{clip-path:url(#SVGID_8_);fill:#1A365D;}
	.st6{clip-path:url(#SVGID_10_);fill:#009CA5;}
	.st7{clip-path:url(#SVGID_12_);fill:#2B5898;}
	.st8{clip-path:url(#SVGID_14_);fill:#0D1622;}
	.st9{clip-path:url(#SVGID_16_);fill:#59C7DC;}
	.st10{clip-path:url(#SVGID_18_);fill:#00545A;}
	.st11{clip-path:url(#SVGID_20_);fill:#73AA4E;}
	.st12{clip-path:url(#SVGID_22_);fill:#9CC480;}
	.st13{clip-path:url(#SVGID_24_);fill:#507636;}
	.st14{clip-path:url(#SVGID_26_);fill:#7574B6;}
	.st15{clip-path:url(#SVGID_28_);fill:#A7A6CF;}
	.st16{clip-path:url(#SVGID_30_);fill:#4C4C92;}
	.st17{clip-path:url(#SVGID_32_);fill:#808182;}
	.st18{clip-path:url(#SVGID_34_);fill:#A5ADB1;}
	.st19{clip-path:url(#SVGID_36_);fill:#586066;}
	.st20{fill:none;stroke:#009CA5;stroke-width:2;stroke-linejoin:round;stroke-miterlimit:10;}
	.st21{fill:none;stroke:#009CA5;stroke-width:2;stroke-linecap:round;stroke-linejoin:round;stroke-miterlimit:10;}
	.st22{fill:none;stroke:#009CA5;stroke-width:2;stroke-miterlimit:10;}
	.st23{fill:none;stroke:#009CA5;stroke-width:2.3034;stroke-linecap:round;stroke-linejoin:round;stroke-miterlimit:10;}
	.st24{fill:none;stroke:#009CA5;stroke-width:2.0061;stroke-linecap:round;stroke-linejoin:round;stroke-miterlimit:10;}
	.st25{fill:#FFFFFF;}
</style>
<path class="st25" d="M11.7,1.2L5.4,7.4C5.2,7.6,5.4,7.9,5.6,7.9h3c0.2,0,0.3,0.1,0.3,0.3v8.4c0,0.2,0.1,0.3,0.3,0.3h5.4
	c0.2,0,0.3-0.1,0.3-0.3V8.2c0-0.2,0.1-0.3,0.3-0.3h3c0.3,0,0.4-0.3,0.2-0.5l-6.3-6.3C12,1,11.8,1,11.7,1.2z"/>
<path class="st25" d="M19.9,16.2v3.4c0,0.2-0.1,0.3-0.3,0.3H4.2c-0.2,0-0.3-0.1-0.3-0.3v-3.4c0-0.2-0.1-0.3-0.3-0.3H1.2
	c-0.2,0-0.3,0.1-0.3,0.3v3.7v2.7c0,0.2,0.1,0.3,0.3,0.3h2.7h16h2.7c0.2,0,0.3-0.1,0.3-0.3v-2.7v-3.7c0-0.2-0.1-0.3-0.3-0.3h-2.4
	C20,15.9,19.9,16.1,19.9,16.2z"/>
</svg>
