<?xml version="1.0" encoding="utf-8"?>
<!-- Generator: Adobe Illustrator 22.0.1, SVG Export Plug-In . SVG Version: 6.00 Build 0)  -->
<svg version="1.1" id="Layer_1" xmlns="http://www.w3.org/2000/svg" xmlns:xlink="http://www.w3.org/1999/xlink" x="0px" y="0px"
	 viewBox="0 0 180 180" style="enable-background:new 0 0 180 180;" xml:space="preserve">
<style type="text/css">
	.st0{fill:#1B365D;}
	.st1{fill:#7574B6;}
	.st2{fill:#808183;}
	.st3{fill:#009CA6;}
	.st4{fill:#74AA4E;}
	.st5{fill:#FFFFFF;}
	.st6{fill:url(#SVGID_5_);}
	.st7{fill:url(#SVGID_6_);}
	.st8{fill:url(#SVGID_7_);}
	.st9{fill:url(#SVGID_8_);}
	.st10{fill:url(#SVGID_9_);}
	.st11{fill:url(#SVGID_10_);}
	.st12{fill:url(#SVGID_11_);}
	.st13{fill:url(#SVGID_12_);}
	.st14{fill:url(#SVGID_13_);}
	.st15{fill:url(#SVGID_14_);}
	.st16{fill:url(#SVGID_15_);}
	.st17{fill:url(#SVGID_16_);}
	.st18{fill:url(#SVGID_17_);}
	.st19{fill:url(#SVGID_18_);}
	.st20{fill:url(#SVGID_19_);}
	.st21{fill:url(#SVGID_20_);}
	.st22{fill:url(#SVGID_21_);}
	.st23{fill:url(#SVGID_22_);}
	.st24{fill:url(#SVGID_23_);}
	.st25{fill:url(#SVGID_24_);}
	.st26{fill:url(#SVGID_25_);}
	.st27{fill:url(#SVGID_26_);}
	.st28{fill:url(#SVGID_27_);}
	.st29{fill:url(#SVGID_28_);}
	.st30{fill:url(#SVGID_29_);}
	.st31{fill:url(#SVGID_30_);}
	.st32{fill:url(#SVGID_31_);}
	.st33{fill:url(#SVGID_32_);}
	.st34{fill:url(#SVGID_33_);}
	.st35{fill:url(#SVGID_34_);}
	.st36{fill:url(#SVGID_35_);}
	.st37{fill:url(#SVGID_36_);}
	.st38{fill:url(#SVGID_37_);}
	.st39{fill:url(#SVGID_38_);}
	.st40{fill:url(#SVGID_39_);}
	.st41{fill:url(#SVGID_40_);}
	.st42{fill:url(#SVGID_41_);}
	.st43{fill:url(#SVGID_42_);}
	.st44{fill:url(#SVGID_43_);}
	.st45{fill:url(#SVGID_44_);}
	.st46{fill:url(#SVGID_45_);}
	.st47{fill:url(#SVGID_46_);}
	.st48{fill:url(#SVGID_47_);}
	.st49{fill:url(#SVGID_48_);}
	.st50{fill:url(#SVGID_49_);}
	.st51{fill:url(#SVGID_50_);}
	.st52{fill:url(#SVGID_51_);}
	.st53{fill:url(#SVGID_52_);}
	.st54{fill:url(#SVGID_53_);}
	.st55{fill:url(#SVGID_54_);}
	.st56{fill:url(#SVGID_55_);}
	.st57{fill:url(#SVGID_56_);}
	.st58{fill:url(#SVGID_57_);}
	.st59{fill:url(#SVGID_58_);}
	.st60{fill:url(#SVGID_59_);}
	.st61{fill:url(#SVGID_60_);}
	.st62{fill:url(#SVGID_61_);}
	.st63{fill:url(#SVGID_62_);}
	.st64{fill:url(#SVGID_63_);}
	.st65{fill:url(#SVGID_64_);}
	.st66{fill:url(#SVGID_65_);}
	.st67{fill:url(#SVGID_66_);}
	.st68{fill:url(#SVGID_67_);}
	.st69{fill:url(#SVGID_68_);}
	.st70{fill:url(#SVGID_69_);}
	.st71{fill:url(#SVGID_70_);}
	.st72{fill:url(#SVGID_71_);}
	.st73{fill:url(#SVGID_72_);}
	.st74{fill:url(#SVGID_73_);}
	.st75{fill:url(#SVGID_74_);}
	.st76{fill:url(#SVGID_75_);}
	.st77{fill:url(#SVGID_76_);}
	.st78{fill:url(#SVGID_77_);}
	.st79{fill:url(#SVGID_78_);}
	.st80{fill:url(#SVGID_79_);}
	.st81{fill:url(#SVGID_80_);}
	.st82{fill:url(#SVGID_81_);}
	.st83{fill:url(#SVGID_82_);}
	.st84{fill:url(#SVGID_83_);}
	.st85{fill:url(#SVGID_84_);}
	.st86{fill:url(#SVGID_85_);}
	.st87{fill:url(#SVGID_86_);}
	.st88{fill:url(#SVGID_87_);}
	.st89{clip-path:url(#SVGID_89_);}
	.st90{fill:url(#SVGID_92_);}
	.st91{fill:url(#SVGID_93_);}
	.st92{fill:url(#SVGID_94_);}
	.st93{fill:url(#SVGID_95_);}
	.st94{fill:url(#SVGID_96_);}
	.st95{fill:url(#SVGID_97_);}
	.st96{fill:none;}
	.st97{font-family:'BrandonGrotesque-Bold';}
	.st98{font-size:33.1873px;}
	.st99{font-family:'BrandonGrotesque-Regular';}
	.st100{fill:url(#SVGID_98_);}
	.st101{fill:url(#SVGID_99_);}
	.st102{fill:url(#SVGID_100_);}
	.st103{fill:url(#SVGID_101_);}
	.st104{fill:url(#SVGID_102_);}
</style>
<g>
	<rect x="12.3" y="152" class="st96" width="155.3" height="23.9"/>
	<text transform="matrix(1 0 0 1 17.4715 175.256)"><tspan x="0" y="0" class="st5 st97 st98">Keno</tspan><tspan x="69.3" y="0" class="st5 st99 st98">Assist</tspan></text>
	<g>
		<linearGradient id="SVGID_2_" gradientUnits="userSpaceOnUse" x1="22.2" y1="100.6935" x2="133.0875" y2="100.6935">
			<stop  offset="2.153446e-02" style="stop-color:#0AB7B1"/>
			<stop  offset="0.3873" style="stop-color:#5DB8B3"/>
			<stop  offset="1" style="stop-color:#9DD3D0"/>
		</linearGradient>
		<path style="fill:url(#SVGID_2_);" d="M52.5,69.1c-16.7,0-30.3,13.6-30.3,30.3c0,16.7,13.4,27.9,30.3,30.3
			c12.1,1.7,23.8,2.4,34.4,2.6V91.5C74.5,75.7,66.9,69.1,52.5,69.1z"/>
		<linearGradient id="SVGID_4_" gradientUnits="userSpaceOnUse" x1="22.2" y1="100.7168" x2="133.0874" y2="100.7168">
			<stop  offset="0" style="stop-color:#ADADAD"/>
			<stop  offset="6.055135e-02" style="stop-color:#B6B6B6"/>
			<stop  offset="0.3164" style="stop-color:#D6D6D6"/>
			<stop  offset="0.5636" style="stop-color:#ECECEC"/>
			<stop  offset="0.7965" style="stop-color:#FAFAFA"/>
			<stop  offset="1" style="stop-color:#FFFFFF"/>
		</linearGradient>
		<path style="fill:url(#SVGID_4_);" d="M93.4,99.9c-16.6-22-24.2-30.8-40.9-30.8c-16.7,0-30.3,13.6-30.3,30.3
			c0,16.7,13.4,27.9,30.3,30.3c42.4,6,80.6,0,80.6,0S109.8,121.7,93.4,99.9z"/>
		
			<linearGradient id="SVGID_5_" gradientUnits="userSpaceOnUse" x1="-3262.4348" y1="-1768.9125" x2="-3151.5474" y2="-1768.9125" gradientTransform="matrix(-0.5 0.866 -0.866 -0.5 -3058.533 1948.15)">
			<stop  offset="0" style="stop-color:#ADADAD"/>
			<stop  offset="6.055135e-02" style="stop-color:#B6B6B6"/>
			<stop  offset="0.3164" style="stop-color:#D6D6D6"/>
			<stop  offset="0.5636" style="stop-color:#ECECEC"/>
			<stop  offset="0.7965" style="stop-color:#FAFAFA"/>
			<stop  offset="1" style="stop-color:#FFFFFF"/>
		</linearGradient>
		<path class="st6" d="M69.7,69.3c27.4-3.4,38.8-5.5,47.2-20c8.4-14.5,3.4-33-11.1-41.4C91.3-0.4,74.9,5.6,64.4,19
			C38,52.7,24.1,88.8,24.1,88.8S42.7,72.7,69.7,69.3z"/>
		<linearGradient id="SVGID_6_" gradientUnits="userSpaceOnUse" x1="127.656" y1="14.8162" x2="127.656" y2="130.052">
			<stop  offset="0" style="stop-color:#FFFFFF"/>
			<stop  offset="0.2035" style="stop-color:#FAFAFA"/>
			<stop  offset="0.4364" style="stop-color:#ECECEC"/>
			<stop  offset="0.6836" style="stop-color:#D6D6D6"/>
			<stop  offset="0.9394" style="stop-color:#B6B6B6"/>
			<stop  offset="1" style="stop-color:#ADADAD"/>
		</linearGradient>
		<path class="st7" d="M108.3,64c-10.7,25.4-14.6,36.4-6.3,50.9c8.4,14.5,26.9,19.4,41.4,11.1c14.5-8.4,17.7-25.7,11.1-41.4
			c-14.4-34.1-40.3-69.8-40.3-69.8S118.9,39,108.3,64z"/>
		<linearGradient id="SVGID_7_" gradientUnits="userSpaceOnUse" x1="22.2" y1="111.891" x2="133.0874" y2="111.891">
			<stop  offset="0" style="stop-color:#ADADAD"/>
			<stop  offset="6.055135e-02" style="stop-color:#B6B6B6"/>
			<stop  offset="0.3164" style="stop-color:#D6D6D6"/>
			<stop  offset="0.5636" style="stop-color:#ECECEC"/>
			<stop  offset="0.7965" style="stop-color:#FAFAFA"/>
			<stop  offset="1" style="stop-color:#FFFFFF"/>
		</linearGradient>
		<path class="st8" d="M133.1,129.7c0,0-23.3-8-39.7-29.7c-2.3-3.1-4.5-5.9-6.5-8.5v40.8C113.5,132.7,133.1,129.7,133.1,129.7z"/>
	</g>
</g>
</svg>
